<svg width="35" height="35" viewBox="0 0 35 35" fill="none" xmlns="http://www.w3.org/2000/svg">
<path d="M24.9203 3.31995H10.5203C6.54386 3.31995 3.32031 6.5435 3.32031 10.5199V24.9199C3.32031 28.8964 6.54386 32.1199 10.5203 32.1199H24.9203C28.8968 32.1199 32.1203 28.8964 32.1203 24.9199V10.5199C32.1203 6.5435 28.8968 3.31995 24.9203 3.31995Z" stroke="#6C6C6C" stroke-width="2" stroke-linecap="round" stroke-linejoin="round"/>
<path d="M23.4802 16.8127C23.6579 18.0111 23.4532 19.2351 22.8952 20.3105C22.3372 21.3859 21.4543 22.2579 20.3721 22.8026C19.2899 23.3473 18.0635 23.5369 16.8674 23.3444C15.6712 23.152 14.5662 22.5872 13.7095 21.7305C12.8528 20.8738 12.2881 19.7688 12.0956 18.5727C11.9031 17.3765 12.0927 16.1501 12.6374 15.068C13.1821 13.9858 14.0542 13.1029 15.1296 12.5449C16.205 11.9869 17.4289 11.7822 18.6274 11.9599C19.8498 12.1412 20.9815 12.7108 21.8554 13.5847C22.7293 14.4585 23.2989 15.5902 23.4802 16.8127Z" stroke="#6C6C6C" stroke-width="2" stroke-linecap="round" stroke-linejoin="round"/>
<path d="M25.6406 9.79993H25.6554" stroke="#6C6C6C" stroke-width="2" stroke-linecap="round" stroke-linejoin="round"/>
</svg>
