<svg width="201" height="207" viewBox="0 0 201 207" fill="none" xmlns="http://www.w3.org/2000/svg">
<path fill-rule="evenodd" clip-rule="evenodd" d="M197.231 30.6649C200.563 31.5343 200.735 33.3033 200.928 35.4464C202.433 107.069 177.929 176.884 109.065 205.987C106.028 207.301 97.7852 207.374 94.9353 205.987C11.1167 165.202 -2.7175 110.212 0.394489 35.4464C0.480527 33.3794 1.78457 31.206 3.72705 30.6649C36.344 27.7147 66.7148 18.1851 94.9353 1.25139C97.8758 -0.469962 106.013 -0.363448 109.065 1.25139C137.453 18.9552 164.267 27.0075 197.231 30.6649Z" fill="#A9A3CF"/>
<path fill-rule="evenodd" clip-rule="evenodd" d="M190.276 39.9382C190.564 44.9107 190.661 49.9336 190.565 55.0072C186.937 104.231 175.256 148.52 133.187 178.602C132.801 178.795 132.414 178.795 132.028 178.602C123.375 174.876 116.855 168.838 112.467 160.49C110.431 155.818 109.419 148.562 111.094 143.538C111.997 140.827 113.914 138.065 116.669 137.017C119.505 136.253 122.189 136.645 125.073 136.728C128.6 137.31 132.077 136.972 135.506 135.713C140.092 132.554 142.735 127.964 142.171 122.238C142.036 120.809 141.649 119.602 142.171 118.326C142.541 117.616 143.555 116.795 144.054 116.153C144.854 113.255 144.054 111.226 146.228 108.038C146.621 106.47 146.524 104.925 145.938 103.402C145.891 102.814 145.794 101.655 145.938 101.084C152.233 97.5783 152.678 93.8389 149.27 87.4635C146.15 83.7635 143.252 79.8997 140.577 75.872C138.978 70.5422 139.032 64.8494 138.114 59.354C134.913 48.2139 128.019 39.3444 116.959 34.8669C100.845 28.9245 85.7758 30.8565 71.7521 40.6627C66.362 45.1274 61.9671 50.392 58.5667 56.4561C52.2882 71.2517 52.6569 87.6312 50.7424 103.402C48.3509 117.031 43.3794 132.511 35.2387 143.682C16.9895 117.756 10.8965 88.3824 10.8965 57.0357C10.8965 51.3364 10.8965 45.6375 10.8965 39.9382C44.5246 36.302 86.6064 18.7836 101.021 10.3798C127.44 25.341 146.013 33.1282 190.276 39.9382Z" fill="#FEFEFE"/>
<path fill-rule="evenodd" clip-rule="evenodd" d="M134.397 115.836C134.218 115.868 134.073 115.965 133.962 116.126C133.728 117.148 133.777 118.114 134.107 119.024C134.538 120.741 134.683 122.48 134.542 124.24C133.979 126.831 132.385 128.328 129.76 128.732C128.843 128.78 127.925 128.828 127.007 128.877C116.721 126.116 109.187 129.4 104.404 138.73C98.7348 152.231 105.919 169.804 117.01 178.286C119.713 180.217 122.514 182.004 125.414 183.647C120.946 189.034 107.894 194.012 101.506 196.687C83.0488 189.683 66.8206 179.25 52.8215 165.39C52.6221 165.149 52.6705 164.956 52.9664 164.81C65.0706 160.769 74.1024 153.138 80.0616 141.917C82.6966 136.236 83.4417 129.87 83.3942 123.66C83.056 118.636 83.056 113.612 83.3942 108.591C84.6429 101.604 88.0239 95.8564 93.5368 91.3491C100.69 86.4661 107.548 81.2016 114.112 75.5556C119.932 70.0762 125.087 61.9009 127.442 55.5602C127.666 55.2093 127.908 55.2093 128.167 55.5602C129.477 58.1393 130.443 60.8439 131.064 63.6743C131.695 67.3245 132.178 70.9949 132.513 74.6862C132.941 77.4728 134.004 79.9844 135.701 82.2207C138.616 85.6905 142.157 89.7407 143.67 94.1021C141.602 95.5069 139.656 96.8914 138.019 98.7387C137.989 101.453 138.086 104.157 138.309 106.853C137.435 107.678 136.614 108.548 135.846 109.461C136.274 110.357 136.757 111.226 137.295 112.069C136.324 113.328 135.358 114.584 134.397 115.836Z" fill="#FEFEFE"/>
</svg>
