<svg width="35" height="35" viewBox="0 0 35 35" fill="none" xmlns="http://www.w3.org/2000/svg">
<path d="M32.1203 24.3648V28.6848C32.122 29.0859 32.0398 29.4828 31.8791 29.8503C31.7185 30.2177 31.4828 30.5476 31.1873 30.8187C30.8918 31.0898 30.5429 31.2962 30.163 31.4247C29.7831 31.5532 29.3806 31.6009 28.9811 31.5648C24.55 31.0833 20.2936 29.5692 16.5539 27.144C13.0746 24.9331 10.1248 21.9833 7.91393 18.504C5.4803 14.7474 3.9658 10.4703 3.49313 6.01922C3.45715 5.62101 3.50447 5.21968 3.63209 4.84076C3.75971 4.46185 3.96484 4.11365 4.2344 3.81836C4.50396 3.52306 4.83205 3.28712 5.19779 3.12557C5.56353 2.96402 5.9589 2.8804 6.35873 2.88002H10.6787C11.3776 2.87314 12.0551 3.12062 12.585 3.57631C13.1148 4.032 13.4609 4.66483 13.5587 5.35682C13.7411 6.73932 14.0792 8.09675 14.5667 9.40322C14.7605 9.91863 14.8024 10.4788 14.6876 11.0173C14.5727 11.5558 14.3059 12.0501 13.9187 12.4416L12.0899 14.2704C14.1399 17.8755 17.1248 20.8605 20.7299 22.9104L22.5587 21.0816C22.9503 20.6945 23.4446 20.4276 23.9831 20.3128C24.5216 20.1979 25.0817 20.2399 25.5971 20.4336C26.9036 20.9211 28.261 21.2593 29.6435 21.4416C30.343 21.5403 30.9819 21.8926 31.4385 22.4316C31.8952 22.9706 32.1379 23.6586 32.1203 24.3648Z" stroke="#6C6C6C" stroke-width="2" stroke-linecap="round" stroke-linejoin="round"/>
</svg>
