<svg width="35" height="35" viewBox="0 0 35 35" fill="none" xmlns="http://www.w3.org/2000/svg">
<g clip-path="url(#clip0_26_215)">
<path d="M32.7782 9.68475C32.6071 9.00134 32.2588 8.37517 31.7683 7.8695C31.2777 7.36382 30.6625 6.99654 29.9846 6.80475C27.5078 6.19995 17.6006 6.19995 17.6006 6.19995C17.6006 6.19995 7.69339 6.19995 5.21659 6.86235C4.5387 7.05414 3.92344 7.42142 3.43293 7.9271C2.94242 8.43277 2.59404 9.05894 2.42299 9.74235C1.9697 12.256 1.74797 14.8058 1.76059 17.36C1.74443 19.9333 1.96617 22.5026 2.42299 25.0352C2.61157 25.6973 2.96775 26.2997 3.45712 26.784C3.94648 27.2683 4.55249 27.6182 5.21659 27.8C7.69339 28.4624 17.6006 28.4624 17.6006 28.4624C17.6006 28.4624 27.5078 28.4624 29.9846 27.8C30.6625 27.6082 31.2777 27.2409 31.7683 26.7352C32.2588 26.2295 32.6071 25.6034 32.7782 24.92C33.228 22.4253 33.4497 19.8948 33.4406 17.36C33.4567 14.7866 33.235 12.2173 32.7782 9.68475Z" stroke="#6C6C6C" stroke-width="2" stroke-linecap="round" stroke-linejoin="round"/>
<path d="M14.3604 22.0687L22.6404 17.3599L14.3604 12.6511V22.0687Z" stroke="#6C6C6C" stroke-width="2" stroke-linecap="round" stroke-linejoin="round"/>
</g>
<defs>
<clipPath id="clip0_26_215">
<rect width="34.56" height="34.56" fill="white" transform="translate(0.320312 0.439941)"/>
</clipPath>
</defs>
</svg>
